<?xml version="1.0" standalone="no"?>
<!DOCTYPE svg PUBLIC "-//W3C//DTD SVG 20010904//EN"
 "http://www.w3.org/TR/2001/REC-SVG-20010904/DTD/svg10.dtd">
<svg version="1.0" xmlns="http://www.w3.org/2000/svg"
 width="260.000000pt" height="260.000000pt" viewBox="0 0 260.000000 260.000000"
 preserveAspectRatio="xMidYMid meet">
<metadata>
Created by potrace 1.14, written by Peter Selinger 2001-2017
</metadata>
<g transform="translate(0.000000,260.000000) scale(0.100000,-0.100000)"
fill="#000000" stroke="none">
<path d="M165 1800 c-4 -6 57 -119 134 -252 l141 -240 -145 -245 c-80 -134
-145 -251 -145 -259 0 -22 122 -20 142 4 8 9 63 103 123 207 59 105 109 191
110 193 1 2 51 -84 110 -190 60 -106 115 -201 123 -210 11 -14 30 -18 78 -18
35 0 66 5 69 10 3 6 -59 123 -140 260 l-146 250 136 230 c74 127 135 239 135
250 0 18 -7 20 -64 20 l-64 0 -113 -199 c-68 -119 -117 -195 -121 -188 -4 7
-56 95 -115 197 l-108 185 -67 3 c-40 2 -69 -1 -73 -8z"/>
<path d="M980 1789 c0 -12 65 -149 145 -305 l145 -283 0 -193 c0 -106 4 -199
9 -206 5 -9 26 -12 67 -10 l59 3 5 205 5 205 149 291 c82 160 146 297 142 303
-10 15 -121 14 -134 -1 -8 -11 -132 -271 -210 -441 l-18 -39 -63 139 c-34 76
-86 185 -114 243 l-52 105 -67 3 c-64 3 -68 2 -68 -19z"/>
<path d="M1784 1796 c-3 -8 -4 -31 -2 -52 l3 -39 232 -5 c128 -3 235 -8 238
-12 3 -3 -98 -169 -225 -368 -127 -200 -238 -376 -246 -391 -18 -36 -18 -113
0 -128 9 -8 105 -11 332 -9 l319 3 0 50 0 50 -205 6 c-113 3 -228 7 -257 8
l-52 1 246 385 c216 338 247 392 251 434 8 83 16 81 -329 81 -247 0 -301 -2
-305 -14z"/>
</g>
</svg>
